HIERARCHY
ROOT Hips
{
    OFFSET 0.0 0.0 0.0
    CHANNELS 6 Xposition Yposition Zposition Zrotation Xrotation Yrotation
    JOINT LeftHipJoint
    {
        OFFSET 0.1 0.0 0.0
        CHANNELS 3 Zrotation Xrotation Yrotation
        JOINT LeftUpLeg
        {
            OFFSET 117.68588816161778 0.0 0.0
            CHANNELS 3 Zrotation Xrotation Yrotation
            JOINT LeftLeg
            {
                OFFSET 0.0 0.0 -405.7153205055721
                CHANNELS 3 Zrotation Xrotation Yrotation
                JOINT LeftFoot
                {
                    OFFSET 0.0 0.0 -392.0821393513175
                    CHANNELS 3 Zrotation Xrotation Yrotation
                    End Site
                    {
                        OFFSET 0.0 -0.1 0.0
                    }
                }
            }
        }
    }
    JOINT LowerBack
    {
        OFFSET 0.0 0.0 0.1
        CHANNELS 3 Zrotation Xrotation Yrotation
        JOINT Spine
        {
            OFFSET 0.0 0.0 220.1324586091442
            CHANNELS 3 Zrotation Xrotation Yrotation
            JOINT Spine1
            {
                OFFSET 0.0 0.0 250.73212814177137
                CHANNELS 3 Zrotation Xrotation Yrotation
                JOINT LeftShoulder
                {
                    OFFSET 0.1 0.0 0.0
                    CHANNELS 3 Zrotation Xrotation Yrotation
                    JOINT LeftArm
                    {
                        OFFSET 140.36782767816698 0.0 0.0
                        CHANNELS 3 Zrotation Xrotation Yrotation
                        JOINT LeftForeArm
                        {
                            OFFSET 257.26228385599745 0.0 0.0
                            CHANNELS 3 Zrotation Xrotation Yrotation
                            JOINT LeftHand
                            {
                                OFFSET 247.06101566926384 0.0 0.0
                                CHANNELS 3 Zrotation Xrotation Yrotation
                                End Site
                                {
                                    OFFSET 0.1 0.0 0.0
                                }
                            }
                        }
                    }
                }
                JOINT Neck
                {
                    OFFSET 0.0 0.0 0.1
                    CHANNELS 3 Zrotation Xrotation Yrotation
                    JOINT Neck1
                    {
                        OFFSET 0.0 0.0 106.71000991412419
                        CHANNELS 3 Zrotation Xrotation Yrotation
                        End Site
                        {
                            OFFSET 0.0 0.0 115.97371757138099
                        }
                    }
                }
                JOINT RightShoulder
                {
                    OFFSET -0.1 0.0 0.0
                    CHANNELS 3 Zrotation Xrotation Yrotation
                    JOINT RightArm
                    {
                        OFFSET -140.36782767816698 0.0 0.0
                        CHANNELS 3 Zrotation Xrotation Yrotation
                        JOINT RightForeArm
                        {
                            OFFSET -257.26228385599745 0.0 0.0
                            CHANNELS 3 Zrotation Xrotation Yrotation
                            JOINT RightHand
                            {
                                OFFSET -247.06101566926384 0.0 0.0
                                CHANNELS 3 Zrotation Xrotation Yrotation
                                End Site
                                {
                                    OFFSET -0.1 0.0 0.0
                                }
                            }
                        }
                    }
                }
            }
        }
    }
    JOINT RightHipJoint
    {
        OFFSET -0.1 0.0 0.0
        CHANNELS 3 Zrotation Xrotation Yrotation
        JOINT RightUpLeg
        {
            OFFSET -117.68588816161778 0.0 0.0
            CHANNELS 3 Zrotation Xrotation Yrotation
            JOINT RightLeg
            {
                OFFSET 0.0 0.0 -405.7153205055721
                CHANNELS 3 Zrotation Xrotation Yrotation
                JOINT RightFoot
                {
                    OFFSET 0.0 0.0 -392.0821393513175
                    CHANNELS 3 Zrotation Xrotation Yrotation
                    End Site
                    {
                        OFFSET 0.0 -0.1 0.0
                    }
                }
            }
        }
    }
}
MOTION
Frames: 4
Frame Time: 0.03333333333333333
0.0 0.0 806.6356506602091 24.31663799110591 2.3434144203093163 5.106830535555473 -1.551763932908259e-33 -1.987846675914698e-16 -8.945310041616142e-16 -0.42519298452638454 -15.214088716378349 -0.8759910317549637 0.29510772803968344 21.58067489485759 0.26640921624378083 0.0 0.0 1.3914926731402886e-15 -1.551763932908259e-33 -1.987846675914698e-16 -8.945310041616142e-16 0.0009286633145705079 0.03395255014212447 -3.8571085257618196 2.6039576610032724 5.442583237133216e-16 -1.1178775698327781e-16 0.0 0.0 -9.93923337957349e-17 -39.322537625317324 7.743892077424074 79.96287094140888 -20.73363495189878 8.39278127383122e-16 1.3086878528325522e-14 -1.5902773407317584e-15 6.896728590703373e-34 -4.969616689786745e-17 0.0 0.0 -9.93923337957349e-17 -3.487106509513237 -3.593788580065649 -0.1331257651434407 0.0 0.0 -9.93923337957349e-17 25.853775740874244 5.541146825824249 -72.58111903571178 33.25588927944169 0.0 0.0 0.0 0.0 -3.1805546814635168e-15 -1.551763932908259e-33 -1.987846675914698e-16 -8.945310041616142e-16 -0.3155041743363828 -11.35135769514336 -3.635015579415008 -0.7174879244012752 19.409875699273478 -0.4557439282216526 -3.1805546814635168e-15 1.1034765745125397e-32 -3.975693351829396e-16
0.0 0.0 806.6356506602091 24.48727115210496 2.3259250772432796 5.095185805770705 0.0 0.0 2.981770013872047e-16 -0.414849093562068 -15.402413090604448 -0.8438560694142812 0.2858938252348406 21.66483448016675 0.3072603910048191 0.0 0.0 3.975693351829396e-16 0.0 0.0 2.981770013872047e-16 0.00344186549221447 0.13066404924663494 -3.767809520845617 2.8236417997262833 1.2244355128646002e-17 4.968108052383254e-16 0.0 0.0 1.987846675914698e-16 -39.023637757809865 7.79226353168579 79.9529246154226 -20.79724639491976 3.9031206826860454e-15 5.162549142623886e-15 0.0 0.0 -5.715059193254756e-16 0.0 0.0 1.987846675914698e-16 -3.813603907316513 -3.582557354640379 -0.1687484216185809 0.0 0.0 1.987846675914698e-16 25.208457820294786 4.602823875279566 -72.30686325739595 32.83842494792185 2.010314658597077e-14 7.075454855706712e-16 0.0 0.0 -1.5902773407317584e-15 0.0 0.0 2.981770013872047e-16 -0.30527512350899544 -11.40482689046787 -3.6242301157045187 -0.7334483170032545 19.386268967221444 -0.3878214076270062 0.0 0.0 -3.975693351829396e-16
0.0 0.0 806.6356506602091 24.60778868893399 2.225478477270065 5.1222645925880865 0.0 0.0 -3.4787316828507215e-16 -0.404156821655888 -15.324241043891934 -0.8162278295342517 0.2818540803033847 21.531441158320693 0.2628229598605062 0.0 0.0 1.987846675914698e-16 0.0 0.0 -3.4787316828507215e-16 0.004324626811687156 0.16765169668287688 -3.7753914598851988 3.0670726225679092 -6.564585503943616e-16 -3.8013730364897856e-16 0.0 0.0 -1.987846675914698e-16 -38.80689337391052 7.892027658567057 80.05247692341636 -20.640736372396603 -2.3504358375494008e-15 1.2907528428792736e-14 0.0 0.0 -2.8326815131784443e-15 0.0 0.0 -1.987846675914698e-16 -4.068260628570343 -3.5267800258722177 -0.1779181046382534 0.0 0.0 -1.987846675914698e-16 24.61057770657018 3.659503501634872 -71.84288232119043 32.485100922158665 0.0 0.0 0.0 0.0 1.5902773407317584e-15 0.0 0.0 -3.4787316828507215e-16 -0.2962290190885188 -11.306376754911021 -3.667720707328846 -0.75478236908296 19.25795623665049 -0.35429417330966984 0.0 0.0 3.975693351829396e-16
0.0 0.0 806.6356506602091 24.77049683862789 2.315087569996273 5.135460792338765 0.0 0.0 -4.969616689786745e-17 -0.43099845890201177 -15.493548722526103 -0.8873682805110504 0.28768412404121574 21.578203174658967 0.3153210565876546 0.0 0.0 3.975693351829396e-16 0.0 0.0 -4.969616689786745e-17 0.006812371443253235 0.25054228694736047 -3.715100807917039 3.349490892432254 9.934987728319015e-17 -2.904806564617855e-18 0.0 0.0 -9.93923337957349e-17 -38.67876901816835 7.973985028449994 79.95924937601832 -20.723505036104566 -3.977949876258205e-15 -4.768950680575514e-15 0.0 0.0 -2.1245111348838336e-15 0.0 0.0 -9.93923337957349e-17 -4.315637462936429 -3.773791838915778 -0.32728232464684165 0.0 0.0 -9.93923337957349e-17 24.114324417805793 2.4533189350695515 -71.36109741492628 32.26456269023996 4.4186798529311565e-15 1.527656605398568e-14 -6.361109362927035e-15 8.827812596100317e-32 -1.5902773407317588e-15 0.0 0.0 -4.969616689786745e-17 -0.31435856277559876 -11.381749153990723 -3.738631912491982 -0.7495907504941837 19.22548807637624 -0.26434367841439577 0.0 0.0 3.975693351829396e-16
